<svg xmlns="http://www.w3.org/2000/svg"  viewBox="0 0 25 30" id="airbnd"><path fill="#583689" d="m18.543 24.738c-.212 0-.427-.013-.642-.039-.097-.001-.193-.016-.285-.045-.542-.066-1.583-.22-3.04-1.27-.875-.622-1.569-1.316-2.076-1.871-.507.554-1.202 1.25-2.081 1.874-1.503 1.082-2.563 1.209-3.017 1.263v-.001c-.107.037-.211.058-.333.053-1.455.166-2.85-.262-3.949-1.215-1.175-1.019-1.849-2.511-1.849-4.095 0-1.363 0-2.047 6.456-14.918l.15-.31c.882-1.829 1.883-3.902 4.614-3.902 2.751 0 3.751 2.073 4.634 3.902l.153.316c6.453 12.864 6.453 13.549 6.453 14.912 0 1.583-.674 3.076-1.849 4.095-.945.819-2.109 1.251-3.339 1.251zm-.445-2.03c.91.124 1.789-.138 2.473-.732.737-.638 1.159-1.58 1.159-2.583 0-.976-.302-2.175-6.244-14.021-.001-.003-.003-.007-.005-.011l-.158-.327c-.903-1.872-1.4-2.771-2.813-2.771-1.433 0-1.93.899-2.833 2.771l-.158.326c-5.947 11.857-6.249 13.057-6.249 14.033 0 1.003.422 1.945 1.159 2.583.685.593 1.562.855 2.473.732.097-.023.187-.034.262-.042.325-.039 1.001-.12 2.091-.904.816-.58 1.469-1.262 1.926-1.772-1.946-2.552-2.932-4.76-2.932-6.566 0-2.902 2.138-4.42 4.25-4.42s4.25 1.518 4.25 4.42c0 1.807-.986 4.015-2.932 6.566.457.51 1.109 1.191 1.921 1.769 1.095.788 1.771.869 2.096.908.077.007.167.018.264.041zm-5.598-11.705c-1.038 0-2.25.634-2.25 2.42 0 .897.402 2.475 2.25 4.99 1.848-2.515 2.25-4.093 2.25-4.99 0-1.786-1.212-2.42-2.25-2.42z"></path></svg>