<svg xmlns="http://www.w3.org/2000/svg" xmlns:xlink="http://www.w3.org/1999/xlink" version="1.1" width="256" height="256" viewBox="0 0 256 256" xml:space="preserve">

<defs>
</defs>
<g style="stroke: none; stroke-width: 0; stroke-dasharray: none; stroke-linecap: butt; stroke-linejoin: miter; stroke-miterlimit: 10; fill: none; fill-rule: nonzero; opacity: 1;" transform="translate(1.4065934065934016 1.4065934065934016) scale(2.81 2.81)" >
	<path d="M 35.239 89.045 c -2.608 0 -5.054 -1.07 -6.887 -3.013 c -1.048 -1.109 -2.825 -1.111 -3.872 0.001 c -1.833 1.942 -4.279 3.012 -6.888 3.012 s -5.054 -1.07 -6.888 -3.012 c -3.71 -3.932 -3.71 -10.33 0 -14.261 l 4.522 -5.127 c 2.878 -3.262 6.957 -5.134 11.19 -5.134 c 4.232 0 8.311 1.872 11.189 5.134 l 4.546 5.152 c 3.686 3.934 3.678 10.312 -0.024 14.235 C 40.294 87.975 37.848 89.045 35.239 89.045 z M 26.416 81.172 c 1.837 0 3.558 0.751 4.845 2.115 c 1.07 1.134 2.483 1.759 3.978 1.759 c 1.496 0 2.909 -0.625 3.979 -1.758 c 2.282 -2.419 2.282 -6.354 0 -8.773 l -0.045 -0.049 l -4.567 -5.176 c -2.151 -2.438 -5.06 -3.781 -8.191 -3.781 c -3.131 0 -6.04 1.343 -8.191 3.781 l -4.567 5.176 c -2.327 2.467 -2.327 6.403 -0.045 8.822 c 1.07 1.133 2.483 1.758 3.979 1.758 s 2.909 -0.625 3.979 -1.759 C 22.858 81.924 24.578 81.172 26.416 81.172 z" style="stroke: none; stroke-width: 1; stroke-dasharray: none; stroke-linecap: butt; stroke-linejoin: miter; stroke-miterlimit: 10; fill: rgb(0,0,0); fill-rule: nonzero; opacity: 1;" transform=" matrix(1 0 0 1 0 0) " stroke-linecap="round" />
	<path d="M 18.595 61.154 c -1.377 0 -2.684 -0.378 -3.79 -1.11 c -1.638 -1.085 -2.762 -2.873 -3.25 -5.171 c -1.028 -4.839 1.307 -9.449 5.205 -10.278 c 3.901 -0.828 7.907 2.435 8.935 7.271 c 0.488 2.298 0.189 4.389 -0.866 6.047 c -0.993 1.558 -2.622 2.647 -4.587 3.064 C 19.687 61.095 19.135 61.154 18.595 61.154 z M 18.015 48.463 c -0.142 0 -0.284 0.015 -0.424 0.044 c -1.712 0.364 -2.685 2.899 -2.124 5.534 c 0.266 1.252 0.801 2.174 1.547 2.669 c 0.818 0.543 1.756 0.492 2.397 0.356 c 0.642 -0.137 1.518 -0.473 2.045 -1.301 c 0.48 -0.755 0.594 -1.815 0.328 -3.067 h 0 C 21.267 50.279 19.608 48.463 18.015 48.463 z" style="stroke: none; stroke-width: 1; stroke-dasharray: none; stroke-linecap: butt; stroke-linejoin: miter; stroke-miterlimit: 10; fill: rgb(0,0,0); fill-rule: nonzero; opacity: 1;" transform=" matrix(1 0 0 1 0 0) " stroke-linecap="round" />
	<path d="M 34.237 61.154 c -0.54 0 -1.092 -0.059 -1.647 -0.177 c -1.965 -0.417 -3.594 -1.506 -4.587 -3.064 c -1.055 -1.658 -1.354 -3.748 -0.866 -6.047 c 1.028 -4.837 5.038 -8.096 8.935 -7.272 c 3.898 0.829 6.233 5.439 5.205 10.278 h 0 c -0.488 2.298 -1.613 4.086 -3.25 5.171 C 36.921 60.776 35.614 61.154 34.237 61.154 z M 34.817 48.463 c -1.593 0 -3.253 1.816 -3.767 4.236 c -0.267 1.252 -0.153 2.312 0.328 3.067 c 0.527 0.828 1.402 1.164 2.044 1.301 c 0.642 0.136 1.579 0.186 2.397 -0.356 c 0.746 -0.494 1.281 -1.417 1.547 -2.669 c 0.559 -2.635 -0.413 -5.17 -2.125 -5.534 C 35.101 48.477 34.96 48.463 34.817 48.463 z" style="stroke: none; stroke-width: 1; stroke-dasharray: none; stroke-linecap: butt; stroke-linejoin: miter; stroke-miterlimit: 10; fill: rgb(0,0,0); fill-rule: nonzero; opacity: 1;" transform=" matrix(1 0 0 1 0 0) " stroke-linecap="round" />
	<path d="M 45.819 70.488 c -0.97 0 -1.959 -0.224 -2.907 -0.666 c -1.663 -0.775 -2.891 -2.082 -3.455 -3.678 c -0.599 -1.693 -0.439 -3.611 0.464 -5.546 c 0.875 -1.878 2.271 -3.4 3.931 -4.287 c 1.822 -0.974 3.826 -1.084 5.504 -0.303 c 1.676 0.781 2.88 2.389 3.305 4.41 c 0.388 1.841 0.118 3.89 -0.758 5.768 c -0.902 1.935 -2.268 3.29 -3.95 3.919 C 47.269 70.361 46.55 70.488 45.819 70.488 z M 46.983 59.488 c -0.497 0 -0.964 0.198 -1.247 0.35 c -0.888 0.475 -1.687 1.368 -2.192 2.451 c -0.45 0.966 -0.56 1.838 -0.318 2.522 c 0.261 0.738 0.892 1.162 1.376 1.387 c 0.483 0.226 1.214 0.436 1.947 0.162 c 0.68 -0.254 1.277 -0.899 1.727 -1.864 v -0.001 c 0.505 -1.082 0.676 -2.268 0.469 -3.253 c -0.096 -0.457 -0.364 -1.274 -1.082 -1.609 C 47.44 59.528 47.208 59.488 46.983 59.488 z" style="stroke: none; stroke-width: 1; stroke-dasharray: none; stroke-linecap: butt; stroke-linejoin: miter; stroke-miterlimit: 10; fill: rgb(0,0,0); fill-rule: nonzero; opacity: 1;" transform=" matrix(1 0 0 1 0 0) " stroke-linecap="round" />
	<path d="M 7.013 70.488 c -0.731 0 -1.451 -0.127 -2.133 -0.383 c -1.682 -0.629 -3.048 -1.985 -3.95 -3.919 c -0.876 -1.878 -1.145 -3.926 -0.758 -5.768 c 0.425 -2.021 1.63 -3.629 3.306 -4.41 c 3.361 -1.565 7.503 0.45 9.434 4.59 l 0 0 c 0.903 1.935 1.063 3.853 0.464 5.546 c -0.565 1.596 -1.792 2.903 -3.456 3.678 C 8.972 70.265 7.983 70.488 7.013 70.488 z M 5.838 59.494 c -0.244 0 -0.47 0.046 -0.669 0.139 c -0.718 0.335 -0.986 1.152 -1.082 1.609 c -0.207 0.985 -0.036 2.172 0.469 3.253 c 0.45 0.966 1.048 1.611 1.727 1.865 c 0.735 0.275 1.465 0.064 1.947 -0.162 c 0.484 -0.226 1.115 -0.649 1.376 -1.387 c 0.242 -0.684 0.132 -1.556 -0.318 -2.521 C 8.439 60.468 6.959 59.494 5.838 59.494 z" style="stroke: none; stroke-width: 1; stroke-dasharray: none; stroke-linecap: butt; stroke-linejoin: miter; stroke-miterlimit: 10; fill: rgb(0,0,0); fill-rule: nonzero; opacity: 1;" transform=" matrix(1 0 0 1 0 0) " stroke-linecap="round" />
	<path d="M 72.394 45.534 c -2.608 0 -5.054 -1.07 -6.888 -3.012 c -1.046 -1.111 -2.824 -1.11 -3.871 0 c -1.834 1.943 -4.28 3.013 -6.889 3.013 c -2.608 0 -5.054 -1.07 -6.888 -3.012 c -3.709 -3.932 -3.709 -10.329 0 -14.261 l 4.522 -5.127 C 55.259 19.871 59.338 18 63.57 18 s 8.311 1.871 11.19 5.134 l 4.545 5.152 c 3.686 3.934 3.678 10.312 -0.023 14.236 C 77.448 44.464 75.002 45.534 72.394 45.534 z M 63.57 37.661 c 1.838 0 3.558 0.751 4.846 2.116 c 1.069 1.134 2.482 1.758 3.978 1.758 s 2.909 -0.624 3.978 -1.758 c 2.282 -2.419 2.282 -6.353 0 -8.772 l -0.045 -0.049 L 71.76 25.78 c -2.151 -2.438 -5.06 -3.781 -8.19 -3.781 c -3.13 0 -6.039 1.343 -8.19 3.781 l -4.567 5.176 c -2.327 2.468 -2.327 6.403 -0.045 8.821 c 1.069 1.134 2.482 1.758 3.978 1.758 c 1.497 0 2.91 -0.624 3.979 -1.758 C 60.012 38.413 61.733 37.661 63.57 37.661 L 63.57 37.661 z" style="stroke: none; stroke-width: 1; stroke-dasharray: none; stroke-linecap: butt; stroke-linejoin: miter; stroke-miterlimit: 10; fill: rgb(0,0,0); fill-rule: nonzero; opacity: 1;" transform=" matrix(1 0 0 1 0 0) " stroke-linecap="round" />
	<path d="M 55.749 17.643 c -1.377 0 -2.684 -0.377 -3.79 -1.11 c -1.638 -1.085 -2.762 -2.873 -3.249 -5.172 c -0.476 -2.241 -0.259 -4.513 0.614 -6.396 c 0.949 -2.048 2.623 -3.463 4.59 -3.881 c 1.972 -0.419 4.073 0.194 5.772 1.678 c 1.563 1.366 2.687 3.352 3.164 5.593 v 0 c 0.967 4.551 -1.225 8.212 -5.453 9.11 C 56.841 17.585 56.289 17.643 55.749 17.643 z M 55.158 4.953 c -0.135 0 -0.272 0.013 -0.413 0.043 c -0.992 0.211 -1.55 1.125 -1.794 1.651 c -0.504 1.087 -0.624 2.503 -0.331 3.883 c 0.267 1.252 0.801 2.175 1.547 2.669 c 0.818 0.541 1.755 0.492 2.396 0.356 c 2.037 -0.433 2.879 -1.985 2.374 -4.368 c -0.294 -1.38 -0.98 -2.624 -1.883 -3.412 C 56.68 5.448 55.978 4.953 55.158 4.953 z" style="stroke: none; stroke-width: 1; stroke-dasharray: none; stroke-linecap: butt; stroke-linejoin: miter; stroke-miterlimit: 10; fill: rgb(0,0,0); fill-rule: nonzero; opacity: 1;" transform=" matrix(1 0 0 1 0 0) " stroke-linecap="round" />
	<path d="M 71.391 17.643 c -0.541 0 -1.092 -0.058 -1.646 -0.176 c -1.966 -0.417 -3.594 -1.506 -4.586 -3.064 c -1.055 -1.657 -1.355 -3.748 -0.866 -6.046 c 1.028 -4.839 5.035 -8.103 8.935 -7.271 c 3.899 0.829 6.233 5.439 5.204 10.277 c -0.488 2.298 -1.612 4.086 -3.25 5.171 C 74.075 17.266 72.768 17.643 71.391 17.643 z M 71.971 4.952 c -1.593 0 -3.252 1.816 -3.767 4.236 c -0.266 1.252 -0.152 2.312 0.328 3.067 c 0.526 0.828 1.402 1.164 2.045 1.301 c 0.64 0.136 1.578 0.185 2.396 -0.356 c 0.746 -0.495 1.281 -1.417 1.548 -2.669 l 0 0 c 0.56 -2.635 -0.413 -5.17 -2.125 -5.534 C 72.255 4.966 72.114 4.952 71.971 4.952 z" style="stroke: none; stroke-width: 1; stroke-dasharray: none; stroke-linecap: butt; stroke-linejoin: miter; stroke-miterlimit: 10; fill: rgb(0,0,0); fill-rule: nonzero; opacity: 1;" transform=" matrix(1 0 0 1 0 0) " stroke-linecap="round" />
	<path d="M 82.999 26.995 c -0.954 0 -1.944 -0.223 -2.932 -0.683 c -3.583 -1.671 -4.785 -5.378 -2.993 -9.224 c 1.932 -4.14 6.078 -6.156 9.434 -4.591 c 3.359 1.567 4.479 6.038 2.548 10.177 v 0 C 87.757 25.461 85.504 26.995 82.999 26.995 z M 84.149 15.983 c -1.121 0 -2.601 0.974 -3.451 2.795 c -0.844 1.809 -0.468 3.198 1.058 3.91 c 1.524 0.71 2.832 0.108 3.675 -1.703 c 1.032 -2.215 0.505 -4.341 -0.614 -4.863 C 84.619 16.029 84.392 15.983 84.149 15.983 z" style="stroke: none; stroke-width: 1; stroke-dasharray: none; stroke-linecap: butt; stroke-linejoin: miter; stroke-miterlimit: 10; fill: rgb(0,0,0); fill-rule: nonzero; opacity: 1;" transform=" matrix(1 0 0 1 0 0) " stroke-linecap="round" />
	<path d="M 44.142 26.995 c -2.505 0 -4.758 -1.535 -6.057 -4.321 c -1.931 -4.14 -0.812 -8.61 2.547 -10.178 c 1.676 -0.781 3.682 -0.671 5.504 0.303 c 1.659 0.887 3.055 2.41 3.93 4.287 c 0.903 1.935 1.063 3.853 0.464 5.546 c -0.564 1.596 -1.792 2.902 -3.456 3.678 C 46.087 26.773 45.096 26.995 44.142 26.995 z M 43.003 15.977 c -0.225 0 -0.456 0.041 -0.68 0.145 c -1.119 0.522 -1.646 2.648 -0.613 4.863 c 0.844 1.81 2.149 2.414 3.675 1.703 c 0.484 -0.226 1.115 -0.649 1.376 -1.388 c 0.242 -0.684 0.132 -1.556 -0.318 -2.522 v 0 c -0.505 -1.082 -1.304 -1.976 -2.192 -2.45 C 43.967 16.175 43.5 15.977 43.003 15.977 z" style="stroke: none; stroke-width: 1; stroke-dasharray: none; stroke-linecap: butt; stroke-linejoin: miter; stroke-miterlimit: 10; fill: rgb(0,0,0); fill-rule: nonzero; opacity: 1;" transform=" matrix(1 0 0 1 0 0) " stroke-linecap="round" />
</g>
</svg>